<?xml version="1.0" encoding="UTF-8" standalone="no"?>
<!-- Created with Inkscape (http://www.inkscape.org/) -->

<svg
   xmlns:dc="http://purl.org/dc/elements/1.1/"
   xmlns:cc="http://creativecommons.org/ns#"
   xmlns:rdf="http://www.w3.org/1999/02/22-rdf-syntax-ns#"
   xmlns:svg="http://www.w3.org/2000/svg"
   xmlns="http://www.w3.org/2000/svg"
   xmlns:sodipodi="http://sodipodi.sourceforge.net/DTD/sodipodi-0.dtd"
   xmlns:inkscape="http://www.inkscape.org/namespaces/inkscape"
   width="400"
   height="200"
   viewBox="0 0 400 200"
   id="svg2"
   version="1.1"
   inkscape:version="0.91 r13725"
   sodipodi:docname="name.svg">
  <defs
     id="defs4" />
  <sodipodi:namedview
     id="base"
     pagecolor="#ffffff"
     bordercolor="#666666"
     borderopacity="1.0"
     inkscape:pageopacity="0.0"
     inkscape:pageshadow="2"
     inkscape:zoom="1.4"
     inkscape:cx="154.63727"
     inkscape:cy="138.93362"
     inkscape:document-units="px"
     inkscape:current-layer="layer1"
     showgrid="false"
     units="px"
     inkscape:window-width="1920"
     inkscape:window-height="1057"
     inkscape:window-x="-8"
     inkscape:window-y="-8"
     inkscape:window-maximized="1" />
  <metadata
     id="metadata7">
    <rdf:RDF>
      <cc:Work
         rdf:about="">
        <dc:format>image/svg+xml</dc:format>
        <dc:type
           rdf:resource="http://purl.org/dc/dcmitype/StillImage" />
        <dc:title></dc:title>
      </cc:Work>
    </rdf:RDF>
  </metadata>
  <g
     inkscape:label="Layer 1"
     inkscape:groupmode="layer"
     id="layer1"
     transform="translate(0,-852.36214)">
    <path
       id="path4146"
       d="m 48.228746,876.04909 10.379754,0 -24.155355,126.44911 24.02721,0 0,28.6154 -39.660914,0 29.409305,-155.06451 z m -28.191925,0 20.951725,0 -5.446167,28.6154 -15.505558,0 0,-28.6154 z"
       path="M494 802H656L279 148H654V0H35L494 802ZM54 802H381L296 654H54V802Z"
       stroke-miterlimit="4"
       inkscape:connector-curvature="0"
       style="fill:#ff6600;fill-opacity:1;fill-rule:evenodd;stroke:none;stroke-width:1;stroke-linecap:butt;stroke-linejoin:miter;stroke-miterlimit:4;stroke-opacity:0" />
    <path
       id="path4148"
       d="m 99.358645,1031.1136 -9.482735,0 0,-77.53228 q 0,-6.76715 -2.24254,-6.76715 l -22.937976,0 0,-74.63202 9.546811,0 0,46.01664 13.391165,0 q 11.725275,0 11.725275,35.38253 l 0,77.53228 z m -34.663251,0 0,-65.3514 9.546811,0 0,65.3514 -9.546811,0 z"
       path="M601 0H453V401Q453 436 418 436H60V822H209V584H418Q601 584 601 401V0ZM60 0V338H209V0H60Z"
       stroke-miterlimit="4"
       inkscape:connector-curvature="0"
       style="fill:#ff6600;fill-opacity:1;fill-rule:evenodd;stroke:none;stroke-width:1;stroke-linecap:butt;stroke-linejoin:miter;stroke-miterlimit:4;stroke-opacity:0" />
    <path
       id="path4150"
       d="m 107.11142,918.19879 9.54682,0 0,112.91481 -9.54682,0 0,-112.91481 z m 0,-46.01664 9.54682,0 0,22.42826 -9.54682,0 0,-22.42826 z"
       path="M60 584H209V0H60V584ZM60 822H209V706H60V822Z"
       stroke-miterlimit="4"
       inkscape:connector-curvature="0"
       style="fill:#ff6600;fill-opacity:1;fill-rule:evenodd;stroke:none;stroke-width:1;stroke-linecap:butt;stroke-linejoin:miter;stroke-miterlimit:4;stroke-opacity:0" />
    <path
       id="path4152"
       d="m 124.34694,872.18215 9.54682,0 0,158.93145 -9.54682,0 0,-158.93145 z"
       path="M60 822H209V0H60V822Z"
       stroke-miterlimit="4"
       inkscape:connector-curvature="0"
       style="fill:#ff6600;fill-opacity:1;fill-rule:evenodd;stroke:none;stroke-width:1;stroke-linecap:butt;stroke-linejoin:miter;stroke-miterlimit:4;stroke-opacity:0" />
    <path
       id="path4154"
       d="m 141.58246,918.19879 9.54682,0 0,112.91481 -9.54682,0 0,-112.91481 z m 0,-46.01664 9.54682,0 0,22.42826 -9.54682,0 0,-22.42826 z"
       path="M60 584H209V0H60V584ZM60 822H209V706H60V822Z"
       stroke-miterlimit="4"
       inkscape:connector-curvature="0"
       style="fill:#ff6600;fill-opacity:1;fill-rule:evenodd;stroke:none;stroke-width:1;stroke-linecap:butt;stroke-linejoin:miter;stroke-miterlimit:4;stroke-opacity:0" />
    <path
       id="path4156"
       d="m 158.81798,942.94723 0,-24.74844 25.50088,0 q 11.78935,0 11.78935,35.38253 l 0,77.53228 -9.54681,0 0,-81.39922 q 0,-6.76715 -2.24254,-6.76715 l -25.50088,0 z m 0,88.16637 0,-69.21834 9.54682,0 0,69.21834 -9.54682,0 z"
       path="M60 456V584H458Q642 584 642 401V0H493V421Q493 456 458 456H60ZM60 0V358H209V0H60Z"
       stroke-miterlimit="4"
       inkscape:connector-curvature="0"
       style="fill:#ff6600;fill-opacity:1;fill-rule:evenodd;stroke:none;stroke-width:1;stroke-linecap:butt;stroke-linejoin:miter;stroke-miterlimit:4;stroke-opacity:0" />
    <path
       id="path4158"
       d="m 258.7071,902.53765 -2.37068,0 -4.54915,84.49275 -8.71387,0 6.15096,-110.98131 16.14629,0 7.11205,130.12271 3.78028,0 5.31803,-130.12271 9.93124,0 -7.56056,155.06451 -18.19661,0 -7.04798,-128.57595 z m -7.945,103.63415 -1.34552,24.9418 -18.9014,0 -7.49649,-155.06451 9.86717,0 5.3821,130.12271 12.49414,0 z"
       path="M571 665H534L463 228H327L423 802H675L786 129H845L928 802H1083L965 0H681L571 665ZM447 129L426 0H131L14 802H168L252 129H447Z"
       stroke-miterlimit="4"
       inkscape:connector-curvature="0"
       style="fill:#ffffff;fill-opacity:1;fill-rule:evenodd;stroke:none;stroke-width:1;stroke-linecap:butt;stroke-linejoin:miter;stroke-miterlimit:4;stroke-opacity:0" />
    <path
       id="path4160"
       d="m 306.82559,1031.1136 q -11.78935,0 -11.78935,-35.38256 l 0,-77.53225 9.54682,0 0,47.95011 14.67261,0 q 2.17847,0 2.17847,-6.5738 l 0,-11.79419 q 0,-4.83368 -2.17847,-4.83368 l -8.3935,0 0,-24.74844 8.3935,0 q 11.72528,0 11.72528,33.44906 l 0,4.0603 q 0,31.1289 -11.72528,31.1289 l -14.67261,0 0,12.76092 q 0,6.76723 2.24253,6.76723 l 21.33617,0 0,24.7484 -21.33617,0 z"
       path="M244 0Q60 0 60 183V584H209V336H438Q472 336 472 370V431Q472 456 438 456H307V584H438Q621 584 621 411V390Q621 229 438 229H209V163Q209 128 244 128H577V0H244Z"
       stroke-miterlimit="4"
       inkscape:connector-curvature="0"
       style="fill:#ffffff;fill-opacity:1;fill-rule:evenodd;stroke:none;stroke-width:1;stroke-linecap:butt;stroke-linejoin:miter;stroke-miterlimit:4;stroke-opacity:0" />
    <path
       id="path4162"
       d="m 336.74747,942.94723 0,-24.74844 25.50088,0 q 11.78935,0 11.78935,35.38253 l 0,77.53228 -9.54681,0 0,-81.39922 q 0,-6.76715 -2.24254,-6.76715 l -25.50088,0 z m 0,88.16637 0,-69.21834 9.54682,0 0,69.21834 -9.54682,0 z"
       path="M60 456V584H458Q642 584 642 401V0H493V421Q493 456 458 456H60ZM60 0V358H209V0H60Z"
       stroke-miterlimit="4"
       inkscape:connector-curvature="0"
       style="fill:#ffffff;fill-opacity:1;fill-rule:evenodd;stroke:none;stroke-width:1;stroke-linecap:butt;stroke-linejoin:miter;stroke-miterlimit:4;stroke-opacity:0" />
  </g>
</svg>
